<svg width="32" height="32" viewBox="0 0 32 32" fill="none" xmlns="http://www.w3.org/2000/svg">
<path fill-rule="evenodd" clip-rule="evenodd" d="M14.2126 16.8333C13.854 18.0381 12.7379 18.9167 11.4167 18.9167C10.0954 18.9167 8.97934 18.0381 8.62078 16.8333H6.83391C6.37336 16.8333 6 16.4634 6 16C6 15.5398 6.37289 15.1667 6.83391 15.1667H8.62078C8.97934 13.9619 10.0954 13.0833 11.4167 13.0833C12.7379 13.0833 13.854 13.9619 14.2126 15.1667H25.1661C25.6266 15.1667 26 15.5366 26 16C26 16.4602 25.6271 16.8333 25.1661 16.8333H14.2126ZM17.7874 22.25C18.146 21.0452 19.2621 20.1667 20.5833 20.1667C21.9046 20.1667 23.0207 21.0452 23.3792 22.25H25.1661C25.6266 22.25 26 22.6199 26 23.0833C26 23.5436 25.6271 23.9167 25.1661 23.9167H23.3792C23.0207 25.1215 21.9046 26 20.5833 26C19.2621 26 18.146 25.1215 17.7874 23.9167H6.83391C6.37336 23.9167 6 23.5468 6 23.0833C6 22.6231 6.37289 22.25 6.83391 22.25H17.7874ZM17.7874 8.08333C18.146 6.87855 19.2621 6 20.5833 6C21.9046 6 23.0207 6.87855 23.3792 8.08333H25.1661C25.6266 8.08333 26 8.45322 26 8.91667C26 9.3769 25.6271 9.75 25.1661 9.75H23.3792C23.0207 10.9548 21.9046 11.8333 20.5833 11.8333C19.2621 11.8333 18.146 10.9548 17.7874 9.75H6.83391C6.37336 9.75 6 9.38011 6 8.91667C6 8.45643 6.37289 8.08333 6.83391 8.08333H17.7874ZM20.5833 10.1667C21.2737 10.1667 21.8333 9.60702 21.8333 8.91667C21.8333 8.22631 21.2737 7.66667 20.5833 7.66667C19.893 7.66667 19.3333 8.22631 19.3333 8.91667C19.3333 9.60702 19.893 10.1667 20.5833 10.1667ZM20.5833 24.3333C21.2737 24.3333 21.8333 23.7737 21.8333 23.0833C21.8333 22.393 21.2737 21.8333 20.5833 21.8333C19.893 21.8333 19.3333 22.393 19.3333 23.0833C19.3333 23.7737 19.893 24.3333 20.5833 24.3333ZM11.4167 14.75C10.7263 14.75 10.1667 15.3096 10.1667 16C10.1667 16.6904 10.7263 17.25 11.4167 17.25C12.107 17.25 12.6667 16.6904 12.6667 16C12.6667 15.3096 12.107 14.75 11.4167 14.75Z" fill="#363636"/>
</svg>
